<svg xmlns="http://www.w3.org/2000/svg" viewBox="0 0 120 40" fill="none">
  <rect width="36" height="36" x="2" y="2" rx="8" fill="#2F81F7"/>
  <path d="M20 8H8a2 2 0 0 0-2 2v14a2 2 0 0 0 2 2h24a2 2 0 0 0 2-2V10a2 2 0 0 0-2-2H20zm-1 14H9V11h10v11zm10 0H20V11h9v11zM14 28h12v2H14z" fill="white"/>
  <text x="44" y="18" font-family="'Plus Jakarta Sans',sans-serif" font-weight="800" font-size="13" fill="#E6EDF3">IT-ISMGB</text>
  <text x="44" y="30" font-family="'Plus Jakarta Sans',sans-serif" font-weight="400" font-size="8" fill="#8B949E">Service Informatique</text>
</svg>
